<svg xmlns="http://www.w3.org/2000/svg" fill="#000000" class="bi bi-pip" viewBox="0 0 16 16" id="Pip--Streamline-Bootstrap" height="16" width="16">
  <desc>
    Pip Streamline Icon: https://streamlinehq.com
  </desc>
  <path d="M0 3.5A1.5 1.5 0 0 1 1.5 2h13A1.5 1.5 0 0 1 16 3.5v9a1.5 1.5 0 0 1 -1.5 1.5h-13A1.5 1.5 0 0 1 0 12.5zM1.5 3a0.5 0.5 0 0 0 -0.5 0.5v9a0.5 0.5 0 0 0 0.5 0.5h13a0.5 0.5 0 0 0 0.5 -0.5v-9a0.5 0.5 0 0 0 -0.5 -0.5z" stroke-width="1"></path>
  <path d="M8 8.5a0.5 0.5 0 0 1 0.5 -0.5h5a0.5 0.5 0 0 1 0.5 0.5v3a0.5 0.5 0 0 1 -0.5 0.5h-5a0.5 0.5 0 0 1 -0.5 -0.5z" stroke-width="1"></path>
</svg>